<?xml version="1.0" standalone="no"?>
<svg xmlns:xlink="http://www.w3.org/1999/xlink" id="wave" style="transform:rotate(180deg); transition: 0.3s" viewBox="0 0 1440 340" version="1.1" xmlns="http://www.w3.org/2000/svg"><defs><linearGradient id="sw-gradient-0" x1="0" x2="0" y1="1" y2="0"><stop stop-color="rgba(255, 243.938, 240.385, 1)" offset="0%"/><stop stop-color="rgba(255, 255, 255, 1)" offset="100%"/></linearGradient></defs><path style="transform:translate(0, 0px); opacity:1" fill="url(#sw-gradient-0)" d="M0,170L60,181.3C120,193,240,215,360,226.7C480,238,600,238,720,204C840,170,960,102,1080,102C1200,102,1320,170,1440,198.3C1560,227,1680,215,1800,226.7C1920,238,2040,272,2160,260.7C2280,249,2400,193,2520,141.7C2640,91,2760,45,2880,34C3000,23,3120,45,3240,45.3C3360,45,3480,23,3600,22.7C3720,23,3840,45,3960,45.3C4080,45,4200,23,4320,34C4440,45,4560,91,4680,124.7C4800,159,4920,181,5040,198.3C5160,215,5280,227,5400,226.7C5520,227,5640,215,5760,181.3C5880,147,6000,91,6120,107.7C6240,125,6360,215,6480,221C6600,227,6720,147,6840,147.3C6960,147,7080,227,7200,243.7C7320,261,7440,215,7560,181.3C7680,147,7800,125,7920,107.7C8040,91,8160,79,8280,107.7C8400,136,8520,204,8580,238L8640,272L8640,340L8580,340C8520,340,8400,340,8280,340C8160,340,8040,340,7920,340C7800,340,7680,340,7560,340C7440,340,7320,340,7200,340C7080,340,6960,340,6840,340C6720,340,6600,340,6480,340C6360,340,6240,340,6120,340C6000,340,5880,340,5760,340C5640,340,5520,340,5400,340C5280,340,5160,340,5040,340C4920,340,4800,340,4680,340C4560,340,4440,340,4320,340C4200,340,4080,340,3960,340C3840,340,3720,340,3600,340C3480,340,3360,340,3240,340C3120,340,3000,340,2880,340C2760,340,2640,340,2520,340C2400,340,2280,340,2160,340C2040,340,1920,340,1800,340C1680,340,1560,340,1440,340C1320,340,1200,340,1080,340C960,340,840,340,720,340C600,340,480,340,360,340C240,340,120,340,60,340L0,340Z"/></svg>